<mxfile host="app.diagrams.net" modified="2023-11-07T02:39:35.066Z" agent="Mozilla/5.0 (X11; Linux x86_64) AppleWebKit/537.36 (KHTML, like Gecko) Chrome/118.0.0.0 Safari/537.36" version="22.0.8" etag="ppdgOhv84G8IiCpkznUD" type="github">
  <diagram name="Page-1" id="6IvI2dqGOkwv_t9zODMt">
    <mxGraphModel>
      <root>
        <mxCell id="0" />
        <mxCell id="1" parent="0" />
      </root>
    </mxGraphModel>
  </diagram>
</mxfile>
